<svg xmlns="http://www.w3.org/2000/svg" viewBox="0 0 612 792"><defs><style>.cls-1{fill:#d09c2a;}.cls-2{fill:#e9b826;}.cls-3{fill:#ffc42e;}.cls-4{fill:#fcee21;opacity:0.75;}</style></defs><title>Back_Circles_Coins</title><g id="Layer_4" data-name="Layer 4"><circle class="cls-1" cx="447.78" cy="583.91" r="16.5"/><circle class="cls-2" cx="446.78" cy="582.91" r="16.5"/><circle class="cls-1" cx="337" cy="413.5" r="16.5"/><circle class="cls-2" cx="336" cy="412.5" r="16.5"/><circle class="cls-1" cx="447.38" cy="483.03" r="16.5"/><circle class="cls-2" cx="446.38" cy="482.03" r="16.5"/><circle class="cls-1" cx="447.38" cy="415.26" r="16.5"/><circle class="cls-2" cx="446.38" cy="414.26" r="16.5"/><circle class="cls-1" cx="362.68" cy="415.26" r="16.5"/><circle class="cls-2" cx="361.68" cy="414.26" r="16.5"/><circle class="cls-1" cx="362.68" cy="313.62" r="16.5"/><circle class="cls-2" cx="361.68" cy="312.62" r="16.5"/><circle class="cls-1" cx="362.68" cy="262.79" r="16.5"/><circle class="cls-2" cx="361.68" cy="261.79" r="16.5"/><circle class="cls-1" cx="362.68" cy="364.44" r="16.5"/><circle class="cls-2" cx="361.68" cy="363.44" r="16.5"/><circle class="cls-1" cx="311.85" cy="347.5" r="16.5"/><circle class="cls-2" cx="310.85" cy="346.5" r="16.5"/><circle class="cls-1" cx="311.85" cy="296.68" r="16.5"/><circle class="cls-2" cx="310.85" cy="295.68" r="16.5"/><circle class="cls-1" cx="311.85" cy="245.85" r="16.5"/><circle class="cls-2" cx="310.85" cy="244.85" r="16.5"/><circle class="cls-1" cx="311.85" cy="178.09" r="16.5"/><circle class="cls-2" cx="310.85" cy="177.09" r="16.5"/><circle class="cls-1" cx="430.44" cy="211.97" r="16.5"/><circle class="cls-2" cx="429.44" cy="210.97" r="16.5"/><circle class="cls-1" cx="549.03" cy="432.21" r="16.5"/><circle class="cls-2" cx="548.03" cy="431.21" r="16.5"/><circle class="cls-1" cx="244.09" cy="381.38" r="16.5"/><circle class="cls-2" cx="243.09" cy="380.38" r="16.5"/><circle class="cls-1" cx="244.09" cy="432.21" r="16.5"/><circle class="cls-2" cx="243.09" cy="431.21" r="16.5"/><circle class="cls-1" cx="176.32" cy="398.32" r="16.5"/><circle class="cls-2" cx="175.32" cy="397.32" r="16.5"/><circle class="cls-1" cx="176.32" cy="449.15" r="16.5"/><circle class="cls-2" cx="175.32" cy="448.15" r="16.5"/><circle class="cls-1" cx="176.32" cy="533.85" r="16.5"/><circle class="cls-2" cx="175.32" cy="532.85" r="16.5"/><circle class="cls-1" cx="277.97" cy="567.74" r="16.5"/><circle class="cls-2" cx="276.97" cy="566.74" r="16.5"/><circle class="cls-1" cx="328.79" cy="567.74" r="16.5"/><circle class="cls-2" cx="327.79" cy="566.74" r="16.5"/><circle class="cls-1" cx="227.15" cy="228.91" r="16.5"/><circle class="cls-2" cx="226.15" cy="227.91" r="16.5"/><circle class="cls-1" cx="277.97" cy="449.15" r="16.5"/><circle class="cls-2" cx="276.97" cy="448.15" r="16.5"/><circle class="cls-1" cx="277.97" cy="415.26" r="16.5"/><circle class="cls-2" cx="276.97" cy="414.26" r="16.5"/><circle class="cls-1" cx="277.97" cy="499.97" r="16.5"/><circle class="cls-2" cx="276.97" cy="498.97" r="16.5"/><circle class="cls-1" cx="515.15" cy="449.15" r="16.5"/><circle class="cls-2" cx="514.15" cy="448.15" r="16.5"/><circle class="cls-1" cx="515.15" cy="364.44" r="16.5"/><circle class="cls-3" cx="512.26" cy="362.06" r="16.5"/><circle class="cls-2" cx="513.15" cy="362.44" r="16.5"/><circle class="cls-1" cx="498.21" cy="178.09" r="16.5"/><circle class="cls-2" cx="497.21" cy="177.09" r="16.5"/><circle class="cls-1" cx="447.38" cy="313.62" r="16.5"/><circle class="cls-2" cx="446.38" cy="312.62" r="16.5"/><circle class="cls-1" cx="447.38" cy="279.74" r="16.5"/><circle class="cls-2" cx="446.38" cy="278.74" r="16.5"/><circle class="cls-1" cx="396.56" cy="279.74" r="16.5"/><circle class="cls-2" cx="395.56" cy="278.74" r="16.5"/><circle class="cls-1" cx="244.09" cy="313.62" r="16.5"/><circle class="cls-2" cx="243.09" cy="312.62" r="16.5"/><circle class="cls-1" cx="396.56" cy="364.44" r="16.5"/><circle class="cls-2" cx="395.56" cy="363.44" r="16.5"/><circle class="cls-1" cx="362.68" cy="330.56" r="16.5"/><circle class="cls-2" cx="361.68" cy="329.56" r="16.5"/><circle class="cls-1" cx="342.21" cy="338.15" r="16.5"/><circle class="cls-2" cx="341.21" cy="337.15" r="16.5"/><circle class="cls-1" cx="283.62" cy="314.56" r="16.5"/><circle class="cls-2" cx="282.62" cy="313.56" r="16.5"/><circle class="cls-1" cx="260.09" cy="304.15" r="16.5"/><circle class="cls-2" cx="259.09" cy="303.15" r="16.5"/><circle class="cls-1" cx="471.91" cy="416.21" r="16.5"/><circle class="cls-2" cx="470.91" cy="415.21" r="16.5"/><circle class="cls-1" cx="443.98" cy="396.5" r="16.5"/><circle class="cls-2" cx="442.98" cy="395.5" r="16.5"/><circle class="cls-1" cx="412.56" cy="351" r="16.5"/><circle class="cls-2" cx="411.56" cy="350" r="16.5"/><circle class="cls-1" cx="312.79" cy="400.21" r="16.5"/><circle class="cls-2" cx="311.79" cy="399.21" r="16.5"/><circle class="cls-1" cx="211.15" cy="374.6" r="16.5"/><circle class="cls-2" cx="210.15" cy="373.6" r="16.5"/><circle class="cls-1" cx="329.79" cy="258.12" r="16.5"/><circle class="cls-2" cx="328.79" cy="257.12" r="16.5"/><circle class="cls-1" cx="431.78" cy="298.56" r="16.5"/><circle class="cls-2" cx="430.78" cy="297.56" r="16.5"/><circle class="cls-1" cx="290.54" cy="387.74" r="16.5"/><circle class="cls-2" cx="289.54" cy="386.74" r="16.5"/><circle class="cls-1" cx="290.04" cy="467.03" r="16.5"/><circle class="cls-2" cx="289.04" cy="466.03" r="16.5"/><circle class="cls-1" cx="287.85" cy="368.69" r="16.5"/><circle class="cls-3" cx="284.97" cy="366.31" r="16.5"/><circle class="cls-2" cx="285.85" cy="366.69" r="16.5"/><circle class="cls-1" cx="381.5" cy="320.84" r="16.5"/><circle class="cls-3" cx="378.62" cy="318.46" r="16.5"/><circle class="cls-2" cx="379.5" cy="318.84" r="16.5"/><circle class="cls-1" cx="405.97" cy="332.25" r="16.5"/><circle class="cls-3" cx="403.09" cy="329.87" r="16.5"/><circle class="cls-2" cx="403.97" cy="330.25" r="16.5"/><circle class="cls-1" cx="364.44" cy="387.93" r="16.5"/><circle class="cls-3" cx="361.56" cy="385.54" r="16.5"/><circle class="cls-2" cx="362.44" cy="385.93" r="16.5"/><circle class="cls-1" cx="308.49" cy="321.22" r="16.5"/><circle class="cls-3" cx="305.6" cy="318.84" r="16.5"/><circle class="cls-2" cx="306.49" cy="319.22" r="16.5"/><circle class="cls-1" cx="427.92" cy="375.79" r="16.5"/><circle class="cls-3" cx="425.04" cy="373.41" r="16.5"/><circle class="cls-2" cx="425.92" cy="373.79" r="16.5"/><circle class="cls-1" cx="390.91" cy="300.94" r="16.5"/><circle class="cls-3" cx="388.03" cy="298.56" r="16.5"/><circle class="cls-2" cx="388.91" cy="298.94" r="16.5"/><circle class="cls-1" cx="330.24" cy="279.49" r="16.5"/><circle class="cls-3" cx="327.35" cy="277.1" r="16.5"/><circle class="cls-2" cx="328.24" cy="277.49" r="16.5"/><circle class="cls-1" cx="274.49" cy="428.07" r="16.5"/><circle class="cls-3" cx="271.6" cy="425.69" r="16.5"/><circle class="cls-2" cx="272.49" cy="426.07" r="16.5"/><circle class="cls-1" cx="416.72" cy="313.37" r="16.5"/><circle class="cls-3" cx="413.84" cy="310.99" r="16.5"/><circle class="cls-2" cx="414.72" cy="311.37" r="16.5"/><circle class="cls-1" cx="468.88" cy="319.65" r="16.5"/><circle class="cls-3" cx="465.99" cy="317.26" r="16.5"/><circle class="cls-2" cx="466.88" cy="317.65" r="16.5"/><circle class="cls-1" cx="460.92" cy="285.63" r="16.5"/><circle class="cls-3" cx="458.04" cy="283.25" r="16.5"/><circle class="cls-2" cx="458.92" cy="283.63" r="16.5"/><circle class="cls-1" cx="375.85" cy="268.32" r="16.5"/><circle class="cls-3" cx="372.97" cy="265.94" r="16.5"/><circle class="cls-2" cx="373.85" cy="266.32" r="16.5"/><circle class="cls-1" cx="259.43" cy="335.69" r="16.5"/><circle class="cls-3" cx="256.54" cy="333.31" r="16.5"/><circle class="cls-2" cx="257.43" cy="333.69" r="16.5"/><circle class="cls-1" cx="242.37" cy="339.34" r="16.5"/><circle class="cls-3" cx="239.49" cy="336.96" r="16.5"/><circle class="cls-2" cx="240.37" cy="337.34" r="16.5"/><circle class="cls-1" cx="305.79" cy="458.31" r="16.5"/><circle class="cls-3" cx="302.91" cy="455.93" r="16.5"/><circle class="cls-2" cx="303.79" cy="456.31" r="16.5"/><circle class="cls-1" cx="363" cy="424.43" r="16.5"/><circle class="cls-3" cx="360.12" cy="422.04" r="16.5"/><circle class="cls-2" cx="361" cy="422.43" r="16.5"/><circle class="cls-1" cx="249.5" cy="403.24" r="16.5"/><circle class="cls-3" cx="246.62" cy="400.85" r="16.5"/><circle class="cls-2" cx="247.5" cy="401.24" r="16.5"/><circle class="cls-1" cx="220.91" cy="357.03" r="16.5"/><circle class="cls-3" cx="218.03" cy="354.65" r="16.5"/><circle class="cls-2" cx="218.91" cy="355.03" r="16.5"/><circle class="cls-1" cx="292.43" cy="256.89" r="16.5"/><circle class="cls-3" cx="289.54" cy="254.51" r="16.5"/><circle class="cls-2" cx="290.43" cy="254.89" r="16.5"/><circle class="cls-1" cx="369.65" cy="437.71" r="16.5"/><circle class="cls-3" cx="366.77" cy="435.32" r="16.5"/><circle class="cls-2" cx="367.65" cy="435.71" r="16.5"/><circle class="cls-1" cx="357.91" cy="448.9" r="16.5"/><circle class="cls-3" cx="355.03" cy="446.51" r="16.5"/><circle class="cls-2" cx="355.91" cy="446.9" r="16.5"/><circle class="cls-1" cx="398" cy="433.9" r="16.5"/><circle class="cls-3" cx="395.12" cy="431.51" r="16.5"/><circle class="cls-2" cx="396" cy="431.9" r="16.5"/><circle class="cls-1" cx="380.38" cy="380.19" r="16.5"/><circle class="cls-3" cx="377.5" cy="377.81" r="16.5"/><circle class="cls-2" cx="378.38" cy="378.19" r="16.5"/><circle class="cls-1" cx="300.56" cy="409.61" r="16.5"/><circle class="cls-3" cx="297.68" cy="407.23" r="16.5"/><circle class="cls-2" cx="298.56" cy="407.61" r="16.5"/><circle class="cls-1" cx="433.22" cy="335.34" r="16.5"/><circle class="cls-3" cx="430.34" cy="332.96" r="16.5"/><circle class="cls-2" cx="431.22" cy="333.34" r="16.5"/><circle class="cls-1" cx="423.91" cy="355.03" r="16.5"/><circle class="cls-3" cx="421.03" cy="352.65" r="16.5"/><circle class="cls-2" cx="421.91" cy="353.03" r="16.5"/><circle class="cls-1" cx="453.82" cy="324.03" r="16.5"/><circle class="cls-3" cx="450.94" cy="321.65" r="16.5"/><circle class="cls-2" cx="451.82" cy="322.03" r="16.5"/><circle class="cls-1" cx="241.49" cy="365.07" r="16.5"/><circle class="cls-3" cx="238.6" cy="362.69" r="16.5"/><circle class="cls-2" cx="239.49" cy="363.07" r="16.5"/><circle class="cls-1" cx="290.99" cy="483.22" r="16.5"/><circle class="cls-3" cx="288.1" cy="480.84" r="16.5"/><circle class="cls-2" cx="288.99" cy="481.22" r="16.5"/><circle class="cls-1" cx="399.44" cy="251.01" r="16.5"/><circle class="cls-3" cx="396.56" cy="248.63" r="16.5"/><circle class="cls-2" cx="397.44" cy="249.01" r="16.5"/><circle class="cls-1" cx="489.85" cy="255.7" r="16.5"/><circle class="cls-3" cx="486.97" cy="253.32" r="16.5"/><circle class="cls-2" cx="487.85" cy="253.7" r="16.5"/><circle class="cls-1" cx="356.47" cy="503.41" r="16.5"/><circle class="cls-3" cx="353.59" cy="501.03" r="16.5"/><circle class="cls-2" cx="354.47" cy="501.41" r="16.5"/><circle class="cls-1" cx="260.31" cy="445.76" r="16.5"/><circle class="cls-3" cx="257.43" cy="443.38" r="16.5"/><circle class="cls-2" cx="258.31" cy="443.76" r="16.5"/><circle class="cls-1" cx="220.35" cy="395.5" r="16.5"/><circle class="cls-3" cx="217.47" cy="393.12" r="16.5"/><circle class="cls-2" cx="218.35" cy="393.5" r="16.5"/><circle class="cls-1" cx="398.88" cy="505.79" r="16.5"/><circle class="cls-3" cx="396" cy="503.41" r="16.5"/><circle class="cls-2" cx="396.88" cy="503.79" r="16.5"/><circle class="cls-1" cx="448.72" cy="449.21" r="16.5"/><circle class="cls-3" cx="445.84" cy="446.82" r="16.5"/><circle class="cls-2" cx="446.72" cy="447.21" r="16.5"/><circle class="cls-1" cx="511.41" cy="406.74" r="16.5"/><circle class="cls-3" cx="508.53" cy="404.35" r="16.5"/><circle class="cls-2" cx="509.41" cy="404.74" r="16.5"/><circle class="cls-1" cx="566.97" cy="244.35" r="16.5"/><circle class="cls-3" cx="564.09" cy="241.97" r="16.5"/><circle class="cls-2" cx="564.97" cy="242.35" r="16.5"/><circle class="cls-1" cx="221.79" cy="477.38" r="16.5"/><circle class="cls-3" cx="218.91" cy="475" r="16.5"/><circle class="cls-2" cx="219.79" cy="475.38" r="16.5"/><circle class="cls-1" cx="193.26" cy="465.84" r="16.5"/><circle class="cls-3" cx="190.38" cy="463.46" r="16.5"/><circle class="cls-2" cx="191.26" cy="463.84" r="16.5"/><circle class="cls-1" cx="173.88" cy="420.01" r="16.5"/><circle class="cls-3" cx="171" cy="417.63" r="16.5"/><circle class="cls-2" cx="171.88" cy="418.01" r="16.5"/><circle class="cls-1" cx="493.47" cy="216.89" r="16.5"/><circle class="cls-3" cx="490.59" cy="214.51" r="16.5"/><circle class="cls-2" cx="491.47" cy="214.89" r="16.5"/><circle class="cls-1" cx="522.09" cy="228.66" r="16.5"/><circle class="cls-3" cx="519.21" cy="226.28" r="16.5"/><circle class="cls-2" cx="520.09" cy="226.66" r="16.5"/><circle class="cls-1" cx="422.47" cy="199.2" r="16.5"/><circle class="cls-3" cx="419.59" cy="196.82" r="16.5"/><circle class="cls-2" cx="420.47" cy="197.2" r="16.5"/><circle class="cls-1" cx="576.68" cy="259.31" r="16.5"/><circle class="cls-3" cx="573.79" cy="256.93" r="16.5"/><circle class="cls-2" cx="574.68" cy="257.31" r="16.5"/><circle class="cls-1" cx="291.87" cy="199.2" r="16.5"/><circle class="cls-3" cx="288.99" cy="196.82" r="16.5"/><circle class="cls-2" cx="289.87" cy="197.2" r="16.5"/><circle class="cls-1" cx="257.43" cy="247.04" r="16.5"/><circle class="cls-3" cx="254.54" cy="244.66" r="16.5"/><circle class="cls-2" cx="255.43" cy="245.04" r="16.5"/><circle class="cls-1" cx="194.26" cy="268.71" r="16.5"/><circle class="cls-3" cx="191.38" cy="266.32" r="16.5"/><circle class="cls-2" cx="192.26" cy="266.71" r="16.5"/><circle class="cls-1" cx="321.94" cy="196.66" r="16.5"/><circle class="cls-3" cx="319.06" cy="194.28" r="16.5"/><circle class="cls-2" cx="319.94" cy="194.66" r="16.5"/><circle class="cls-1" cx="173.32" cy="333.44" r="16.5"/><circle class="cls-3" cx="170.44" cy="331.06" r="16.5"/><circle class="cls-2" cx="171.32" cy="331.44" r="16.5"/><circle class="cls-1" cx="460.92" cy="470.35" r="16.5"/><circle class="cls-3" cx="458.04" cy="467.97" r="16.5"/><circle class="cls-2" cx="458.92" cy="468.35" r="16.5"/><circle class="cls-1" cx="448.22" cy="502.6" r="16.5"/><circle class="cls-3" cx="445.34" cy="500.22" r="16.5"/><circle class="cls-2" cx="446.22" cy="500.6" r="16.5"/><circle class="cls-1" cx="538.03" cy="440.62" r="16.5"/><circle class="cls-3" cx="535.15" cy="438.24" r="16.5"/><circle class="cls-2" cx="536.03" cy="438.62" r="16.5"/><circle class="cls-1" cx="482.15" cy="499.72" r="16.5"/><circle class="cls-3" cx="479.26" cy="497.34" r="16.5"/><circle class="cls-2" cx="480.15" cy="497.72" r="16.5"/><circle class="cls-1" cx="204.74" cy="399.51" r="16.5"/><circle class="cls-3" cx="201.85" cy="397.13" r="16.5"/><circle class="cls-2" cx="202.74" cy="397.51" r="16.5"/></g><g id="Background"><circle class="cls-4" cx="415.48" cy="468.91" r="45"/><circle class="cls-4" cx="153" cy="288.5" r="45"/><circle class="cls-4" cx="519" cy="281.5" r="45"/></g></svg>